<mxfile host="app.diagrams.net" modified="2022-01-12T00:56:43.616Z" agent="5.0 (X11; Linux x86_64) AppleWebKit/537.36 (KHTML, like Gecko) Chrome/97.0.4692.71 Safari/537.36" etag="GZiAfiJsrRZJfWt8f62A" version="16.2.4" type="github">
  <diagram id="-Zs6IMRvJbEqUA_x1sDD" name="Page-1">
    <mxGraphModel dx="2272" dy="772" grid="1" gridSize="10" guides="1" tooltips="1" connect="1" arrows="1" fold="1" page="1" pageScale="1" pageWidth="850" pageHeight="1100" math="0" shadow="0">
      <root>
        <mxCell id="0" />
        <mxCell id="1" parent="0" />
        <mxCell id="a3Gq_rASKQ31gIR8x6Hf-35" value="" style="rounded=0;whiteSpace=wrap;html=1;fillColor=#f5f5f5;fontColor=#333333;strokeColor=#666666;" vertex="1" parent="1">
          <mxGeometry x="-130" y="280" width="1340" height="570" as="geometry" />
        </mxCell>
        <mxCell id="a3Gq_rASKQ31gIR8x6Hf-16" style="edgeStyle=orthogonalEdgeStyle;rounded=0;orthogonalLoop=1;jettySize=auto;html=1;exitX=0.5;exitY=1;exitDx=0;exitDy=0;" edge="1" parent="1" source="a3Gq_rASKQ31gIR8x6Hf-1" target="a3Gq_rASKQ31gIR8x6Hf-2">
          <mxGeometry relative="1" as="geometry" />
        </mxCell>
        <mxCell id="a3Gq_rASKQ31gIR8x6Hf-17" style="edgeStyle=orthogonalEdgeStyle;rounded=0;orthogonalLoop=1;jettySize=auto;html=1;exitX=0.5;exitY=1;exitDx=0;exitDy=0;" edge="1" parent="1" source="a3Gq_rASKQ31gIR8x6Hf-1" target="a3Gq_rASKQ31gIR8x6Hf-3">
          <mxGeometry relative="1" as="geometry" />
        </mxCell>
        <mxCell id="a3Gq_rASKQ31gIR8x6Hf-1" value="Diagramas" style="rounded=0;whiteSpace=wrap;html=1;fontStyle=1" vertex="1" parent="1">
          <mxGeometry x="490" y="320" width="120" height="60" as="geometry" />
        </mxCell>
        <mxCell id="a3Gq_rASKQ31gIR8x6Hf-10" style="edgeStyle=orthogonalEdgeStyle;rounded=0;orthogonalLoop=1;jettySize=auto;html=1;entryX=0.5;entryY=0;entryDx=0;entryDy=0;exitX=0.5;exitY=1;exitDx=0;exitDy=0;" edge="1" parent="1" source="a3Gq_rASKQ31gIR8x6Hf-2" target="a3Gq_rASKQ31gIR8x6Hf-4">
          <mxGeometry relative="1" as="geometry" />
        </mxCell>
        <mxCell id="a3Gq_rASKQ31gIR8x6Hf-11" style="edgeStyle=orthogonalEdgeStyle;rounded=0;orthogonalLoop=1;jettySize=auto;html=1;entryX=0.5;entryY=0;entryDx=0;entryDy=0;" edge="1" parent="1" source="a3Gq_rASKQ31gIR8x6Hf-2" target="a3Gq_rASKQ31gIR8x6Hf-5">
          <mxGeometry relative="1" as="geometry">
            <Array as="points">
              <mxPoint x="260" y="550" />
              <mxPoint x="140" y="550" />
            </Array>
          </mxGeometry>
        </mxCell>
        <mxCell id="a3Gq_rASKQ31gIR8x6Hf-12" style="edgeStyle=orthogonalEdgeStyle;rounded=0;orthogonalLoop=1;jettySize=auto;html=1;entryX=0.5;entryY=0;entryDx=0;entryDy=0;" edge="1" parent="1" source="a3Gq_rASKQ31gIR8x6Hf-2" target="a3Gq_rASKQ31gIR8x6Hf-6">
          <mxGeometry relative="1" as="geometry" />
        </mxCell>
        <mxCell id="a3Gq_rASKQ31gIR8x6Hf-13" style="edgeStyle=orthogonalEdgeStyle;rounded=0;orthogonalLoop=1;jettySize=auto;html=1;exitX=0.5;exitY=1;exitDx=0;exitDy=0;" edge="1" parent="1" source="a3Gq_rASKQ31gIR8x6Hf-2" target="a3Gq_rASKQ31gIR8x6Hf-8">
          <mxGeometry relative="1" as="geometry" />
        </mxCell>
        <mxCell id="a3Gq_rASKQ31gIR8x6Hf-14" style="edgeStyle=orthogonalEdgeStyle;rounded=0;orthogonalLoop=1;jettySize=auto;html=1;entryX=0.5;entryY=0;entryDx=0;entryDy=0;" edge="1" parent="1" source="a3Gq_rASKQ31gIR8x6Hf-2" target="a3Gq_rASKQ31gIR8x6Hf-7">
          <mxGeometry relative="1" as="geometry">
            <Array as="points">
              <mxPoint x="260" y="550" />
              <mxPoint x="300" y="550" />
            </Array>
          </mxGeometry>
        </mxCell>
        <mxCell id="a3Gq_rASKQ31gIR8x6Hf-15" style="edgeStyle=orthogonalEdgeStyle;rounded=0;orthogonalLoop=1;jettySize=auto;html=1;entryX=0.658;entryY=0.033;entryDx=0;entryDy=0;entryPerimeter=0;exitX=0.5;exitY=1;exitDx=0;exitDy=0;" edge="1" parent="1" source="a3Gq_rASKQ31gIR8x6Hf-2" target="a3Gq_rASKQ31gIR8x6Hf-9">
          <mxGeometry relative="1" as="geometry">
            <Array as="points">
              <mxPoint x="260" y="550" />
              <mxPoint x="479" y="550" />
            </Array>
          </mxGeometry>
        </mxCell>
        <mxCell id="a3Gq_rASKQ31gIR8x6Hf-34" style="edgeStyle=orthogonalEdgeStyle;rounded=0;orthogonalLoop=1;jettySize=auto;html=1;" edge="1" parent="1" source="a3Gq_rASKQ31gIR8x6Hf-2" target="a3Gq_rASKQ31gIR8x6Hf-33">
          <mxGeometry relative="1" as="geometry">
            <Array as="points">
              <mxPoint x="260" y="550" />
              <mxPoint x="-20" y="550" />
            </Array>
          </mxGeometry>
        </mxCell>
        <mxCell id="a3Gq_rASKQ31gIR8x6Hf-2" value="Estruturais" style="rounded=0;whiteSpace=wrap;html=1;fontStyle=1;fillColor=#b0e3e6;strokeColor=#0e8088;" vertex="1" parent="1">
          <mxGeometry x="200" y="460" width="120" height="60" as="geometry" />
        </mxCell>
        <mxCell id="a3Gq_rASKQ31gIR8x6Hf-25" style="edgeStyle=orthogonalEdgeStyle;rounded=0;orthogonalLoop=1;jettySize=auto;html=1;entryX=0.5;entryY=0;entryDx=0;entryDy=0;" edge="1" parent="1" source="a3Gq_rASKQ31gIR8x6Hf-3" target="a3Gq_rASKQ31gIR8x6Hf-18">
          <mxGeometry relative="1" as="geometry">
            <Array as="points">
              <mxPoint x="830" y="550" />
              <mxPoint x="660" y="550" />
            </Array>
          </mxGeometry>
        </mxCell>
        <mxCell id="a3Gq_rASKQ31gIR8x6Hf-26" style="edgeStyle=orthogonalEdgeStyle;rounded=0;orthogonalLoop=1;jettySize=auto;html=1;entryX=0.5;entryY=0;entryDx=0;entryDy=0;" edge="1" parent="1" source="a3Gq_rASKQ31gIR8x6Hf-3" target="a3Gq_rASKQ31gIR8x6Hf-36">
          <mxGeometry relative="1" as="geometry">
            <Array as="points">
              <mxPoint x="830" y="550" />
              <mxPoint x="740" y="550" />
              <mxPoint x="740" y="660" />
            </Array>
          </mxGeometry>
        </mxCell>
        <mxCell id="a3Gq_rASKQ31gIR8x6Hf-27" style="edgeStyle=orthogonalEdgeStyle;rounded=0;orthogonalLoop=1;jettySize=auto;html=1;" edge="1" parent="1" source="a3Gq_rASKQ31gIR8x6Hf-3" target="a3Gq_rASKQ31gIR8x6Hf-20">
          <mxGeometry relative="1" as="geometry" />
        </mxCell>
        <mxCell id="a3Gq_rASKQ31gIR8x6Hf-29" style="edgeStyle=orthogonalEdgeStyle;rounded=0;orthogonalLoop=1;jettySize=auto;html=1;exitX=0.5;exitY=1;exitDx=0;exitDy=0;" edge="1" parent="1" source="a3Gq_rASKQ31gIR8x6Hf-3" target="a3Gq_rASKQ31gIR8x6Hf-22">
          <mxGeometry relative="1" as="geometry" />
        </mxCell>
        <mxCell id="a3Gq_rASKQ31gIR8x6Hf-3" value="Comportamentais" style="rounded=0;whiteSpace=wrap;html=1;fontStyle=1;fillColor=#b0e3e6;strokeColor=#0e8088;" vertex="1" parent="1">
          <mxGeometry x="770" y="460" width="120" height="60" as="geometry" />
        </mxCell>
        <mxCell id="a3Gq_rASKQ31gIR8x6Hf-4" value="Classes" style="rounded=0;whiteSpace=wrap;html=1;" vertex="1" parent="1">
          <mxGeometry y="580" width="120" height="60" as="geometry" />
        </mxCell>
        <mxCell id="a3Gq_rASKQ31gIR8x6Hf-5" value="Objetos&lt;br&gt;" style="rounded=0;whiteSpace=wrap;html=1;" vertex="1" parent="1">
          <mxGeometry x="80" y="660" width="120" height="60" as="geometry" />
        </mxCell>
        <mxCell id="a3Gq_rASKQ31gIR8x6Hf-6" value="Pacotes" style="rounded=0;whiteSpace=wrap;html=1;" vertex="1" parent="1">
          <mxGeometry x="160" y="580" width="120" height="60" as="geometry" />
        </mxCell>
        <mxCell id="a3Gq_rASKQ31gIR8x6Hf-7" value="Componentes" style="rounded=0;whiteSpace=wrap;html=1;" vertex="1" parent="1">
          <mxGeometry x="240" y="660" width="120" height="60" as="geometry" />
        </mxCell>
        <mxCell id="a3Gq_rASKQ31gIR8x6Hf-8" value="Implantação" style="rounded=0;whiteSpace=wrap;html=1;" vertex="1" parent="1">
          <mxGeometry x="320" y="580" width="120" height="60" as="geometry" />
        </mxCell>
        <mxCell id="a3Gq_rASKQ31gIR8x6Hf-9" value="Estrutura Composta" style="rounded=0;whiteSpace=wrap;html=1;" vertex="1" parent="1">
          <mxGeometry x="400" y="660" width="120" height="60" as="geometry" />
        </mxCell>
        <mxCell id="a3Gq_rASKQ31gIR8x6Hf-18" value="Caso de Uso" style="rounded=0;whiteSpace=wrap;html=1;" vertex="1" parent="1">
          <mxGeometry x="600" y="580" width="120" height="60" as="geometry" />
        </mxCell>
        <mxCell id="a3Gq_rASKQ31gIR8x6Hf-19" value="Sequência" style="rounded=0;whiteSpace=wrap;html=1;" vertex="1" parent="1">
          <mxGeometry x="560" y="770" width="120" height="60" as="geometry" />
        </mxCell>
        <mxCell id="a3Gq_rASKQ31gIR8x6Hf-20" value="Comunicação" style="rounded=0;whiteSpace=wrap;html=1;" vertex="1" parent="1">
          <mxGeometry x="760" y="580" width="120" height="60" as="geometry" />
        </mxCell>
        <mxCell id="a3Gq_rASKQ31gIR8x6Hf-21" value="Máquina&lt;br&gt;&amp;nbsp;de&lt;br&gt;&amp;nbsp;estados" style="rounded=0;whiteSpace=wrap;html=1;" vertex="1" parent="1">
          <mxGeometry x="720" y="770" width="120" height="60" as="geometry" />
        </mxCell>
        <mxCell id="a3Gq_rASKQ31gIR8x6Hf-22" value="Atividade" style="rounded=0;whiteSpace=wrap;html=1;" vertex="1" parent="1">
          <mxGeometry x="920" y="580" width="120" height="60" as="geometry" />
        </mxCell>
        <mxCell id="a3Gq_rASKQ31gIR8x6Hf-23" value="Visão Geral&lt;br&gt;de interação" style="rounded=0;whiteSpace=wrap;html=1;" vertex="1" parent="1">
          <mxGeometry x="880" y="770" width="120" height="60" as="geometry" />
        </mxCell>
        <mxCell id="a3Gq_rASKQ31gIR8x6Hf-24" value="Tempo ou Temporização" style="rounded=0;whiteSpace=wrap;html=1;" vertex="1" parent="1">
          <mxGeometry x="1040" y="770" width="120" height="60" as="geometry" />
        </mxCell>
        <mxCell id="a3Gq_rASKQ31gIR8x6Hf-33" value="Perfil" style="rounded=0;whiteSpace=wrap;html=1;" vertex="1" parent="1">
          <mxGeometry x="-80" y="660" width="120" height="60" as="geometry" />
        </mxCell>
        <mxCell id="a3Gq_rASKQ31gIR8x6Hf-37" style="edgeStyle=orthogonalEdgeStyle;rounded=0;orthogonalLoop=1;jettySize=auto;html=1;" edge="1" parent="1" source="a3Gq_rASKQ31gIR8x6Hf-36" target="a3Gq_rASKQ31gIR8x6Hf-21">
          <mxGeometry relative="1" as="geometry" />
        </mxCell>
        <mxCell id="a3Gq_rASKQ31gIR8x6Hf-38" style="edgeStyle=orthogonalEdgeStyle;rounded=0;orthogonalLoop=1;jettySize=auto;html=1;entryX=0.5;entryY=0;entryDx=0;entryDy=0;" edge="1" parent="1" source="a3Gq_rASKQ31gIR8x6Hf-36" target="a3Gq_rASKQ31gIR8x6Hf-19">
          <mxGeometry relative="1" as="geometry" />
        </mxCell>
        <mxCell id="a3Gq_rASKQ31gIR8x6Hf-39" style="edgeStyle=orthogonalEdgeStyle;rounded=0;orthogonalLoop=1;jettySize=auto;html=1;exitX=0.5;exitY=1;exitDx=0;exitDy=0;" edge="1" parent="1" source="a3Gq_rASKQ31gIR8x6Hf-36" target="a3Gq_rASKQ31gIR8x6Hf-23">
          <mxGeometry relative="1" as="geometry" />
        </mxCell>
        <mxCell id="a3Gq_rASKQ31gIR8x6Hf-41" style="edgeStyle=orthogonalEdgeStyle;rounded=0;orthogonalLoop=1;jettySize=auto;html=1;exitX=0.5;exitY=1;exitDx=0;exitDy=0;" edge="1" parent="1" source="a3Gq_rASKQ31gIR8x6Hf-36" target="a3Gq_rASKQ31gIR8x6Hf-24">
          <mxGeometry relative="1" as="geometry" />
        </mxCell>
        <mxCell id="a3Gq_rASKQ31gIR8x6Hf-36" value="Interação" style="rounded=0;whiteSpace=wrap;html=1;fontStyle=1;fillColor=#b0e3e6;strokeColor=#0e8088;" vertex="1" parent="1">
          <mxGeometry x="680" y="660" width="120" height="60" as="geometry" />
        </mxCell>
      </root>
    </mxGraphModel>
  </diagram>
</mxfile>
